<svg xmlns="http://www.w3.org/2000/svg" width="32.034" height="41.371" viewBox="0 0 32.034 41.371"><defs><style>.a{fill:rgba(19,38,74,0.8);}</style></defs><path class="a" d="M15.94,41.371a15.51,15.51,0,0,1-7.954-2.181A16.4,16.4,0,0,1,2.15,33.355,15.227,15.227,0,0,1,0,25.461a17.125,17.125,0,0,1,1.966-7.278A47.26,47.26,0,0,1,6.542,10.35a48.019,48.019,0,0,1,5.5-6.388L15.97,0l.008.008c3.274,3.274,4.959,5.093,5.8,6.043,1.765,2,3.377,3.942,4.792,5.773a38.291,38.291,0,0,1,3.87,7.064,17.477,17.477,0,0,1,1.6,6.573,15.2,15.2,0,0,1-2.181,7.894,16.313,16.313,0,0,1-5.9,5.836A15.785,15.785,0,0,1,15.94,41.371Zm4.827-19.477a3.129,3.129,0,0,0-2.426.974,4.354,4.354,0,0,0-.886,2.994,4.373,4.373,0,0,0,.886,3,3.167,3.167,0,0,0,2.456.974,3.1,3.1,0,0,0,2.4-.974,4.373,4.373,0,0,0,.887-3,4.353,4.353,0,0,0-.887-2.994A3.14,3.14,0,0,0,20.767,21.894Zm-2.092-7.947L10.666,29.81H12.8l7.947-15.862H18.674Zm-8.069,0a3.106,3.106,0,0,0-2.4.974,4.357,4.357,0,0,0-.887,2.994,4.349,4.349,0,0,0,.887,3,3.176,3.176,0,0,0,2.456.969,3.106,3.106,0,0,0,2.4-.974,4.357,4.357,0,0,0,.887-2.994,4.353,4.353,0,0,0-.887-3A3.178,3.178,0,0,0,10.6,13.947ZM20.746,28.19a.811.811,0,0,1-.707-.38,3.835,3.835,0,0,1-.338-1.958,3.9,3.9,0,0,1,.338-1.968.8.8,0,0,1,.707-.369.827.827,0,0,1,.717.369,4.006,4.006,0,0,1,.329,1.968,3.9,3.9,0,0,1-.338,1.969A.8.8,0,0,1,20.746,28.19ZM10.6,20.233a.819.819,0,0,1-.707-.369,3.9,3.9,0,0,1-.338-1.969A3.9,3.9,0,0,1,9.9,15.926a.866.866,0,0,1,1.425.01,3.944,3.944,0,0,1,.328,1.958,4.008,4.008,0,0,1-.328,1.969A.828.828,0,0,1,10.6,20.233Z"/></svg>