<svg xmlns="http://www.w3.org/2000/svg" width="59.12" height="59.12" viewBox="0 0 59.12 59.12"><defs><style>.a{fill:#fff;opacity:0.85;}</style></defs><path class="a" d="M35.023,18.463A15.917,15.917,0,1,0,50.94,34.38,15.936,15.936,0,0,0,35.023,18.463Zm0,27.286A11.369,11.369,0,1,1,46.392,34.38,11.368,11.368,0,0,1,35.023,45.749Zm0-31.834A2.274,2.274,0,0,0,37.3,11.642V7.094a2.274,2.274,0,1,0-4.548,0v4.548A2.274,2.274,0,0,0,35.023,13.915Zm0,40.929a2.274,2.274,0,0,0-2.274,2.274v4.548a2.274,2.274,0,0,0,4.548,0V57.119A2.274,2.274,0,0,0,35.023,54.845ZM52.707,19.908l3.215-3.215a2.274,2.274,0,1,0-3.215-3.215l-3.215,3.215a2.274,2.274,0,0,0,3.215,3.215ZM17.338,48.852l-3.215,3.215a2.274,2.274,0,0,0,3.215,3.215l3.215-3.215a2.274,2.274,0,0,0-3.215-3.215ZM14.558,34.38a2.274,2.274,0,0,0-2.274-2.274H7.737a2.274,2.274,0,1,0,0,4.548h4.548A2.274,2.274,0,0,0,14.558,34.38Zm47.751-2.274H57.761a2.274,2.274,0,0,0,0,4.548h4.548a2.274,2.274,0,0,0,0-4.548Zm-44.974-12.2a2.274,2.274,0,0,0,3.215-3.215l-3.215-3.215a2.274,2.274,0,1,0-3.215,3.215ZM52.71,48.849a2.274,2.274,0,1,0-3.215,3.215L52.71,55.28a2.274,2.274,0,0,0,3.215-3.215Z" transform="translate(-5.463 -4.82)"/></svg>