<svg xmlns="http://www.w3.org/2000/svg" width="42.371" height="42.371" viewBox="0 0 42.371 42.371"><defs><style>.a{fill:rgba(19,38,74,0.8);stroke:#e4e4e4;}</style></defs><path class="a" d="M33.614,0a7.757,7.757,0,1,0,7.757,7.757A7.769,7.769,0,0,0,33.614,0Zm0,10.343A2.586,2.586,0,1,1,36.2,7.757,2.583,2.583,0,0,1,33.614,10.343ZM20.685,9.05a9.05,9.05,0,0,0-18.1,0V22.5a11.614,11.614,0,1,0,20.685,7.232A11.532,11.532,0,0,0,20.685,22.5ZM11.636,36.2A6.453,6.453,0,0,1,7.757,24.58V9.05a3.879,3.879,0,0,1,7.757,0V24.58A6.453,6.453,0,0,1,11.636,36.2Zm1.293-10.108V9.05a1.293,1.293,0,1,0-2.586,0V26.091a3.879,3.879,0,1,0,2.586,0Z" transform="translate(0.5 0.5)"/></svg>