<svg xmlns="http://www.w3.org/2000/svg" width="51.178" height="43.92" viewBox="0 0 51.178 43.92"><defs><style>.a{fill:rgba(19,38,74,0.8);}</style></defs><path class="a" d="M12.062,30.521V-2.886A.864.864,0,0,0,11.2-3.75H7.168a.864.864,0,0,0-.864.864V30.521H2.989A1.727,1.727,0,0,0,1.767,33.47l6.194,6.194a1.727,1.727,0,0,0,2.443,0L16.6,33.47a1.727,1.727,0,0,0-1.221-2.949H12.062Z" transform="translate(-1.258 3.75)"/><path class="a" d="M12.062,30.521V-2.886A.864.864,0,0,0,11.2-3.75H7.168a.864.864,0,0,0-.864.864V30.521H2.989A1.727,1.727,0,0,0,1.767,33.47l6.194,6.194a1.727,1.727,0,0,0,2.443,0L16.6,33.47a1.727,1.727,0,0,0-1.221-2.949H12.062Z" transform="translate(16.406 3.75)"/><path class="a" d="M12.062,30.521V-2.886A.864.864,0,0,0,11.2-3.75H7.168a.864.864,0,0,0-.864.864V30.521H2.989A1.727,1.727,0,0,0,1.767,33.47l6.194,6.194a1.727,1.727,0,0,0,2.443,0L16.6,33.47a1.727,1.727,0,0,0-1.221-2.949H12.062Z" transform="translate(34.071 3.75)"/></svg>