<svg xmlns="http://www.w3.org/2000/svg" width="51.741" height="59.12" viewBox="0 0 51.741 59.12"><defs><style>.a{fill:#fff;opacity:0.85;}</style></defs><path class="a" d="M64.447,41.584l-6-3.467,5.2-3.068A2.017,2.017,0,1,0,61.6,31.573L54.428,35.8,43.62,29.56l10.806-6.239,7.17,4.226a2.018,2.018,0,0,0,2.049-3.476L58.441,21l6.006-3.468a2.017,2.017,0,1,0-2.017-3.494l-6,3.467-.055-6.042a2.017,2.017,0,1,0-4.035.036l.075,8.323L41.6,26.065V13.587l7.246-4.1a2.018,2.018,0,0,0-1.985-3.513L41.6,8.952V2.017a2.017,2.017,0,1,0-4.035,0V8.952l-5.26-2.973a2.018,2.018,0,1,0-1.985,3.513l7.246,4.1V26.065l-10.807-6.24.075-8.323a2.017,2.017,0,0,0-2-2.035h-.019a2.017,2.017,0,0,0-2.017,2l-.055,6.042-6-3.467a2.017,2.017,0,1,0-2.017,3.494L20.73,21l-5.205,3.068a2.018,2.018,0,1,0,2.049,3.476l7.171-4.226L35.551,29.56,24.743,35.8l-7.169-4.227a2.017,2.017,0,1,0-2.049,3.475l5.2,3.069-6,3.467a2.017,2.017,0,1,0,2.017,3.494l6-3.467.055,6.042a2.018,2.018,0,0,0,2.017,2h.019a2.017,2.017,0,0,0,2-2.035l-.075-8.323,10.808-6.24V45.532l-7.246,4.1a2.018,2.018,0,1,0,1.985,3.513l5.26-2.973V57.1a2.017,2.017,0,1,0,4.035,0V50.167l5.26,2.973a2.018,2.018,0,0,0,1.985-3.513l-7.246-4.1V33.054l10.807,6.24-.077,8.323a2.017,2.017,0,0,0,2,2.036h.019a2.018,2.018,0,0,0,2.017-2l.056-6.043,6.006,3.467a2.017,2.017,0,1,0,2.017-3.494Z" transform="translate(-13.715)"/></svg>